<?xml version="1.0" encoding="UTF-8" standalone="no"?><!DOCTYPE svg PUBLIC "-//W3C//DTD SVG 1.1//EN" "http://www.w3.org/Graphics/SVG/1.1/DTD/svg11.dtd"><svg width="100%" height="100%" viewBox="0 0 58 58" version="1.1" xmlns="http://www.w3.org/2000/svg" xmlns:xlink="http://www.w3.org/1999/xlink" xml:space="preserve" style="fill-rule:evenodd;clip-rule:evenodd;stroke-linejoin:round;stroke-miterlimit:1.41421;"><g><g><circle cx="29.119" cy="28.965" r="27.093" style="fill:#70118e;"/></g><path d="M29.129,1.871c-6.999,-0.14 -13.973,2.559 -19.318,7.904c-5.265,5.265 -7.948,12.223 -7.799,19.213c-0.113,6.978 2.55,13.899 7.804,19.153c5.383,5.383 12.316,8.058 19.294,7.945c6.846,0.006 13.805,-2.677 19.069,-7.942c5.345,-5.345 8.045,-12.32 8.048,-19.175c0.104,-6.969 -2.571,-13.902 -7.954,-19.285c-5.254,-5.254 -12.175,-7.917 -19.144,-7.813Zm9.951,27.095c0.128,0.548 -0.409,1.086 -0.976,0.975l-8.031,0.005l0,8.026c0.023,0.655 -0.42,1.097 -0.974,0.975c-0.646,0 -1.065,-0.419 -0.946,-0.946l-0.004,-8.091l-8.049,0.038c-0.647,-0.001 -1.068,-0.422 -0.973,-0.973c-0.11,-0.543 0.332,-0.985 0.974,-0.975l8.042,0.015l-0.011,-8.046c-0.098,-0.554 0.44,-1.092 0.976,-0.975c0.533,-0.078 0.955,0.344 0.973,0.972l0.004,8.008l8.049,0.046c0.51,-0.102 0.928,0.317 0.946,0.946Zm-30.427,-20.348c5.697,-5.697 13.056,-8.572 20.476,-8.496c7.377,-0.104 14.776,2.802 20.34,8.366c5.69,5.689 8.592,13.084 8.493,20.467c-0.027,7.318 -2.794,14.784 -8.491,20.481c-5.575,5.574 -13.068,8.369 -20.361,8.372c-7.374,0.089 -14.793,-2.789 -20.482,-8.478c-5.564,-5.564 -8.447,-12.987 -8.352,-20.355c-0.099,-7.397 2.802,-14.783 8.377,-20.357Z" style="fill:#fff;"/></g></svg>