<?xml version="1.0" encoding="UTF-8" standalone="no"?><!DOCTYPE svg PUBLIC "-//W3C//DTD SVG 1.1//EN" "http://www.w3.org/Graphics/SVG/1.1/DTD/svg11.dtd"><svg width="100%" height="100%" viewBox="0 0 52 52" version="1.1" xmlns="http://www.w3.org/2000/svg" xmlns:xlink="http://www.w3.org/1999/xlink" xml:space="preserve" style="fill-rule:evenodd;clip-rule:evenodd;stroke-linecap:round;stroke-linejoin:round;stroke-miterlimit:1.5;"><g><path d="M50.306,13.366c0,-6.799 -5.521,-12.319 -12.32,-12.319l-24.639,0c-6.799,0 -12.319,5.52 -12.319,12.319l0,24.639c0,6.8 5.52,12.32 12.319,12.32l24.639,0c6.799,0 12.32,-5.52 12.32,-12.32l0,-24.639Z" style="fill:none;stroke:#fff;stroke-width:2px;"/><g><circle cx="25.83" cy="18.78" r="6.797" style="fill:url(#_Linear1);stroke:#fff;stroke-width:0.33px;"/><circle cx="19.087" cy="26.066" r="6.797" style="fill:url(#_Linear2);stroke:#fff;stroke-width:0.33px;"/><circle cx="25.83" cy="32.591" r="6.797" style="fill:url(#_Linear3);stroke:#fff;stroke-width:0.33px;"/><circle cx="32.246" cy="25.958" r="6.797" style="fill:url(#_Linear4);stroke:#fff;stroke-width:0.33px;"/></g></g><defs><linearGradient id="_Linear1" x1="0" y1="0" x2="1" y2="0" gradientUnits="userSpaceOnUse" gradientTransform="matrix(9.62026,11.5286,-20.4953,5.4114,20.448,12.4693)"><stop offset="0" style="stop-color:#45007e;stop-opacity:1"/><stop offset="1" style="stop-color:#ff4bc4;stop-opacity:1"/></linearGradient><linearGradient id="_Linear2" x1="0" y1="0" x2="1" y2="0" gradientUnits="userSpaceOnUse" gradientTransform="matrix(9.62026,11.5286,-20.4953,5.4114,13.7055,19.7556)"><stop offset="0" style="stop-color:#45007e;stop-opacity:1"/><stop offset="1" style="stop-color:#ff4bc4;stop-opacity:1"/></linearGradient><linearGradient id="_Linear3" x1="0" y1="0" x2="1" y2="0" gradientUnits="userSpaceOnUse" gradientTransform="matrix(9.62026,11.5286,-20.4953,5.4114,20.448,26.2807)"><stop offset="0" style="stop-color:#45007e;stop-opacity:1"/><stop offset="1" style="stop-color:#ff4bc4;stop-opacity:1"/></linearGradient><linearGradient id="_Linear4" x1="0" y1="0" x2="1" y2="0" gradientUnits="userSpaceOnUse" gradientTransform="matrix(9.62026,11.5286,-20.4953,5.4114,26.8643,19.6469)"><stop offset="0" style="stop-color:#45007e;stop-opacity:1"/><stop offset="1" style="stop-color:#ff4bc4;stop-opacity:1"/></linearGradient></defs></svg>