<?xml version="1.0" encoding="UTF-8" standalone="no"?><!DOCTYPE svg PUBLIC "-//W3C//DTD SVG 1.1//EN" "http://www.w3.org/Graphics/SVG/1.1/DTD/svg11.dtd"><svg width="100%" height="100%" viewBox="0 0 18 18" version="1.1" xmlns="http://www.w3.org/2000/svg" xmlns:xlink="http://www.w3.org/1999/xlink" xml:space="preserve" style="fill-rule:evenodd;clip-rule:evenodd;stroke-linejoin:round;stroke-miterlimit:1.41421;"><path d="M12.472,11.501l-2.882,2.861l-2.604,-2.588c1.832,-1.831 3.661,-3.662 5.486,-5.512l0,-2.764l-2.438,0c-0.149,0 -0.294,-0.099 -0.294,-0.244l0,-2.544l-9.024,0l0,15.8l11.756,0l0,-5.009Zm-5.272,0.873l2.134,2.198l-2.839,0.291l0.297,-2.847l0.408,0.358Zm0.992,1.789l-0.992,-0.99l-0.1,1.09l1.092,-0.1Zm5.557,-9.142l0.729,-0.724l2.635,2.59l-0.76,0.74l0.01,0.008l-0.193,0.198l-3.141,3.117l0,6.062l-12.819,0l0,-16.853l9.774,0l0.035,0.024c0.064,0 0.123,0.027 0.163,0.076l0.54,0.541l2.307,2.148l0,2.756c0.234,-0.226 0.461,-0.473 0.699,-0.707l0.021,0.024Zm1.87,2.614l-1.891,-1.889l-5.991,6.028l1.853,1.839l6.029,-5.978Zm0.342,-0.39l0.402,-0.358l-1.885,-1.89l-0.358,0.392l1.841,1.856Zm-3.83,-4.297l-1.84,-1.841l0,1.841l1.84,0Z" style="fill:#fff;"/></svg>