<?xml version="1.0" encoding="UTF-8" standalone="no"?><!DOCTYPE svg PUBLIC "-//W3C//DTD SVG 1.1//EN" "http://www.w3.org/Graphics/SVG/1.1/DTD/svg11.dtd"><svg width="100%" height="100%" viewBox="0 0 28 28" version="1.1" xmlns="http://www.w3.org/2000/svg" xmlns:xlink="http://www.w3.org/1999/xlink" xml:space="preserve" style="fill-rule:evenodd;clip-rule:evenodd;stroke-linejoin:round;stroke-miterlimit:1.41421;"><path d="M13.951,27.364c-3.75,0 -7.163,-1.523 -9.639,-3.999c-2.481,-2.454 -4.004,-5.868 -4.004,-9.64c0,-3.75 1.523,-7.16 4.004,-9.639c2.476,-2.477 5.889,-4.012 9.639,-4.012c3.774,0 7.184,1.535 9.634,4.012c2.485,2.479 4.006,5.889 4.006,9.639c0,3.772 -1.521,7.186 -4.006,9.64c-2.45,2.476 -5.86,3.999 -9.634,3.999Zm5.456,-12.505l-10.933,0c-0.281,0 -0.595,-0.104 -0.779,-0.307c-0.208,-0.26 -0.307,-0.49 -0.307,-0.827c0,-0.313 0.099,-0.616 0.307,-0.798c0.184,-0.209 0.498,-0.312 0.779,-0.312l10.933,0c0.28,0 0.565,0.103 0.743,0.312c0.232,0.182 0.394,0.485 0.394,0.798c0,0.337 -0.162,0.567 -0.394,0.775c-0.178,0.255 -0.463,0.359 -0.743,0.359Zm0,-3.563l-10.933,0c-0.281,0 -0.595,-0.133 -0.779,-0.337c-0.208,-0.184 -0.307,-0.464 -0.307,-0.751c0,-0.311 0.099,-0.615 0.307,-0.799c0.184,-0.208 0.498,-0.337 0.779,-0.337l10.933,0c0.28,0 0.565,0.129 0.743,0.337c0.232,0.184 0.394,0.488 0.394,0.799c0,0.287 -0.162,0.567 -0.394,0.751c-0.178,0.204 -0.463,0.337 -0.743,0.337Zm0,7.084l-10.933,0c-0.281,0 -0.595,-0.107 -0.779,-0.311c-0.208,-0.211 -0.307,-0.491 -0.307,-0.827c0,-0.287 0.099,-0.547 0.307,-0.776c0.184,-0.186 0.498,-0.311 0.779,-0.311l10.933,0c0.28,0 0.565,0.125 0.743,0.311c0.232,0.229 0.394,0.489 0.394,0.776c0,0.336 -0.162,0.616 -0.394,0.827c-0.178,0.204 -0.463,0.311 -0.743,0.311Zm-5.456,-16.032c-3.156,0 -6.002,1.24 -8.06,3.312c-2.073,2.098 -3.309,4.912 -3.309,8.065c0,3.149 1.236,5.991 3.309,8.061c2.058,2.062 4.904,3.305 8.06,3.305c3.156,0 5.998,-1.243 8.063,-3.305c2.068,-2.07 3.31,-4.912 3.31,-8.061c0,-3.153 -1.242,-5.967 -3.31,-8.065c-2.065,-2.072 -4.907,-3.312 -8.063,-3.312Z" style="fill:#fff;"/></svg>