<?xml version="1.0" encoding="UTF-8" standalone="no"?><!DOCTYPE svg PUBLIC "-//W3C//DTD SVG 1.1//EN" "http://www.w3.org/Graphics/SVG/1.1/DTD/svg11.dtd"><svg width="100%" height="100%" viewBox="0 0 15 21" version="1.1" xmlns="http://www.w3.org/2000/svg" xmlns:xlink="http://www.w3.org/1999/xlink" xml:space="preserve" style="fill-rule:evenodd;clip-rule:evenodd;stroke-linejoin:round;stroke-miterlimit:1.41421;"><path d="M12.79,2.587l-1.951,0l-6.658,0l-1.949,0c-0.438,0 -0.736,0.116 -1.038,0.414c-0.241,0.261 -0.378,0.621 -0.378,0.978l0,15.628l13.435,0l0,-15.628c0,-0.357 -0.183,-0.717 -0.424,-0.978c-0.242,-0.298 -0.614,-0.414 -1.037,-0.414Zm-7.931,-0.739l5.302,0l0,-0.543c0,-0.074 -0.058,-0.194 -0.118,-0.253c-0.058,-0.059 -0.123,-0.059 -0.24,-0.059l-4.586,0c-0.059,0 -0.183,0 -0.241,0.059c-0.059,0.059 -0.117,0.179 -0.117,0.253l0,0.543Zm1.893,14.093c-0.254,0 -0.38,-0.117 -0.38,-0.3c0,-0.241 0.126,-0.358 0.38,-0.358l4.941,0c0.184,0 0.366,0.117 0.366,0.358c0,0.183 -0.182,0.3 -0.366,0.3l-4.941,0Zm0,-4.75c-0.254,0 -0.38,-0.195 -0.38,-0.371c0,-0.178 0.126,-0.367 0.38,-0.367l4.941,0c0.184,0 0.366,0.189 0.366,0.367c0,0.176 -0.182,0.371 -0.366,0.371l-4.941,0Zm0,-4.759c-0.254,0 -0.38,-0.186 -0.38,-0.377c0,-0.185 0.126,-0.361 0.38,-0.361l4.941,0c0.184,0 0.366,0.176 0.366,0.361c0,0.191 -0.182,0.377 -0.366,0.377l-4.941,0Zm-2.205,-1.279l-1.898,0l0,1.816l1.898,0l0,-1.816Zm-2.254,-0.739l2.624,0c0.183,0 0.3,0.186 0.3,0.363l0,2.57c0,0.182 -0.117,0.363 -0.3,0.363l-2.624,0c-0.186,0 -0.304,-0.181 -0.304,-0.363l0,-2.57c0,-0.177 0.118,-0.363 0.304,-0.363Zm2.254,5.49l-1.898,0l0,1.889l1.898,0l0,-1.889Zm-2.254,-0.721l2.624,0c0.183,0 0.3,0.177 0.3,0.358l0,2.573c0,0.235 -0.117,0.355 -0.3,0.355l-2.624,0c-0.186,0 -0.304,-0.12 -0.304,-0.355l0,-2.573c0,-0.181 0.118,-0.358 0.304,-0.358Zm2.254,5.479l-1.898,0l0,1.9l1.898,0l0,-1.9Zm-2.254,-0.657l2.624,0c0.183,0 0.3,0.12 0.3,0.356l0,2.557c0,0.194 -0.117,0.369 -0.3,0.369l-2.624,0c-0.186,0 -0.304,-0.175 -0.304,-0.369l0,-2.557c0,-0.236 0.118,-0.356 0.304,-0.356Zm-0.061,-12.157l1.949,0l0,-0.543c0,-0.253 0.117,-0.555 0.301,-0.736c0.183,-0.175 0.435,-0.302 0.735,-0.302l4.586,0c0.3,0 0.542,0.127 0.719,0.302c0.2,0.181 0.317,0.483 0.317,0.736l0,0.543l1.951,0c0.601,0 1.16,0.242 1.52,0.621c0.378,0.415 0.616,0.911 0.616,1.51l0,16.004c0,0.186 -0.121,0.362 -0.376,0.362l-14.092,0c-0.181,0 -0.367,-0.176 -0.367,-0.362l0,-16.004c0,-0.599 0.245,-1.095 0.607,-1.51c0.373,-0.379 0.915,-0.621 1.534,-0.621Z" style="fill:#fff;"/></svg>