<?xml version="1.0" encoding="UTF-8" standalone="no"?><!DOCTYPE svg PUBLIC "-//W3C//DTD SVG 1.1//EN" "http://www.w3.org/Graphics/SVG/1.1/DTD/svg11.dtd"><svg width="100%" height="100%" viewBox="0 0 20 18" version="1.1" xmlns="http://www.w3.org/2000/svg" xmlns:xlink="http://www.w3.org/1999/xlink" xml:space="preserve" style="fill-rule:evenodd;clip-rule:evenodd;stroke-linejoin:round;stroke-miterlimit:1.41421;"><path d="M11.001,2.8c-1.073,-1.075 -2.522,-1.708 -4.168,-1.708c-1.569,0 -3.028,0.633 -4.1,1.708c-1.075,1.074 -1.698,2.517 -1.698,4.1c0,1.634 0.623,3.097 1.698,4.168c1.072,1.01 2.531,1.707 4.1,1.707c1.646,0 3.095,-0.697 4.168,-1.707c1.09,-1.071 1.708,-2.534 1.708,-4.168c0,-1.583 -0.618,-3.026 -1.708,-4.1Zm-4.979,-0.572c0.132,0 0.248,0.122 0.248,0.323c0,0.125 -0.116,0.249 -0.248,0.249c-0.942,-0.062 -1.766,0.31 -2.348,0.883c-0.616,0.559 -1.003,1.386 -1.066,2.334c-0.068,0.127 -0.19,0.247 -0.314,0.247c-0.125,0 -0.247,-0.12 -0.247,-0.247c0.122,-1.135 0.561,-2.083 1.258,-2.717c0.703,-0.686 1.644,-1.072 2.717,-1.072Zm0.811,-2.025c1.899,0 3.545,0.764 4.742,1.962c1.195,1.258 1.959,2.904 1.959,4.735c0,1.527 -0.5,2.893 -1.326,4l7.01,5.589c0.125,0.191 0.188,0.455 0.063,0.64c-0.197,0.185 -0.448,0.185 -0.636,0.061l-6.992,-5.639l-0.078,0.074c-1.197,1.214 -2.843,1.96 -4.742,1.96c-1.815,0 -3.467,-0.746 -4.664,-1.96c-1.257,-1.196 -1.955,-2.888 -1.955,-4.725c0,-1.831 0.698,-3.477 1.955,-4.735c1.197,-1.198 2.849,-1.962 4.664,-1.962Z" style="fill:#989898;"/></svg>