<?xml version="1.0" encoding="UTF-8" standalone="no"?><!DOCTYPE svg PUBLIC "-//W3C//DTD SVG 1.1//EN" "http://www.w3.org/Graphics/SVG/1.1/DTD/svg11.dtd"><svg width="100%" height="100%" viewBox="0 0 10 20" version="1.1" xmlns="http://www.w3.org/2000/svg" xmlns:xlink="http://www.w3.org/1999/xlink" xml:space="preserve" style="fill-rule:evenodd;clip-rule:evenodd;stroke-linejoin:round;stroke-miterlimit:1.41421;"><path d="M0.493,0.324l9.016,0c0.215,0 0.313,0.1 0.313,0.301l0,18.084c0,0.196 -0.098,0.296 -0.313,0.296c-0.098,0 -0.149,-0.05 -0.195,-0.1l-4.359,-5.11l-4.2,5.11c-0.097,0.1 -0.311,0.155 -0.412,0.05c-0.098,-0.05 -0.098,-0.148 -0.098,-0.246l0,-18.084c0,-0.201 0.098,-0.301 0.248,-0.301Zm8.77,0.548l-8.459,0l0,17.025l3.89,-4.766l0.066,0c0.148,-0.149 0.301,-0.1 0.399,0l4.104,4.815l0,-17.074Z" style="fill:#fff;"/></svg>